<svg width="150" height="83" viewBox="0 0 150 83" fill="none" xmlns="http://www.w3.org/2000/svg">
<g clip-path="url(#clip0_3212_9650)">
<path d="M0 77.7575V-6C0 -8.20914 1.79086 -10 4 -10H146C148.209 -10 150 -8.20914 150 -6V77.785C150 80.4157 147.504 82.3302 144.963 81.6483L75.2948 62.951C74.609 62.767 73.8865 62.7688 73.2016 62.9564L5.05637 81.6155C2.5109 82.3125 0 80.3967 0 77.7575Z" fill="#F9E593"/>
<g opacity="0.1">
<path d="M-44.2234 99.1889C-43.711 77.0191 -29.9778 28.8355 20.8554 13.4599C84.397 -5.75964 147.17 -25.7378 139.996 -64.4297" stroke="#A85325"/>
<path d="M-54 104.65C-50.6397 82.7241 -30.8191 36.6516 21.5808 27.7711C87.0805 16.6705 151.915 4.72109 149.777 -34.5567" stroke="#A85325"/>
<path d="M-38.7552 149.593C-39.6749 127.436 -29.0797 78.487 20.6579 59.9462C82.8298 36.7702 144.186 12.8854 134.529 -25.2768" stroke="#A85325"/>
<path d="M-42.6861 131.391C-37.4303 109.83 -13.6739 65.6084 39.3051 61.2027C105.529 55.6955 171.164 49.2863 172.451 9.97234" stroke="#A85325"/>
</g>
</g>
<defs>
<clipPath id="clip0_3212_9650">
<rect width="150" height="83" fill="white"/>
</clipPath>
</defs>
</svg>
