<svg width="20" height="20" viewBox="0 0 20 20" fill="none" xmlns="http://www.w3.org/2000/svg">
<mask id="mask0" mask-type="alpha" maskUnits="userSpaceOnUse" x="2" y="2" width="17" height="17">
<path d="M13.7489 12.3347L17.7348 16.3206C18.1253 16.7111 18.1253 17.3443 17.7348 17.7348C17.3443 18.1253 16.7111 18.1253 16.3206 17.7348L12.3347 13.7489C11.2597 14.5356 9.9341 15 8.5 15C4.91015 15 2 12.0899 2 8.5C2 4.91015 4.91015 2 8.5 2C12.0899 2 15 4.91015 15 8.5C15 9.9341 14.5356 11.2597 13.7489 12.3347ZM8.5 13C10.9853 13 13 10.9853 13 8.5C13 6.01472 10.9853 4 8.5 4C6.01472 4 4 6.01472 4 8.5C4 10.9853 6.01472 13 8.5 13Z" fill="white"/>
</mask>
<g mask="url(#mask0)">
<path d="M13.7489 12.3347L17.7348 16.3206C18.1253 16.7111 18.1253 17.3443 17.7348 17.7348C17.3443 18.1253 16.7111 18.1253 16.3206 17.7348L12.3347 13.7489C11.2597 14.5356 9.9341 15 8.5 15C4.91015 15 2 12.0899 2 8.5C2 4.91015 4.91015 2 8.5 2C12.0899 2 15 4.91015 15 8.5C15 9.9341 14.5356 11.2597 13.7489 12.3347ZM8.5 13C10.9853 13 13 10.9853 13 8.5C13 6.01472 10.9853 4 8.5 4C6.01472 4 4 6.01472 4 8.5C4 10.9853 6.01472 13 8.5 13Z" fill="black"/>
<path d="M20 0H0V20H20V0Z" fill="black"/>
</g>
</svg>
