<svg width="36" height="36" viewBox="0 0 36 36" fill="none" xmlns="http://www.w3.org/2000/svg">
<path d="M22.6 3V10.2H14.2V25.8H7V5.4C7.00187 4.76405 7.25532 4.15469 7.70501 3.70501C8.15469 3.25532 8.76406 3.00187 9.4 3H22.6Z" fill="#FFBA00"/>
<path d="M22.6001 3V10.2H29.8001L22.6001 3Z" fill="#EA4335"/>
<path d="M29.8001 10.2H22.6001V27H29.8001V10.2Z" fill="#4285F4"/>
<path d="M22.6001 33V25.8H14.2001V33H22.6001Z" fill="#00AC47"/>
<path d="M27.4 33H22.6V25.8H29.8V30.6C29.8 31.2365 29.5472 31.847 29.0971 32.2971C28.647 32.7471 28.0366 33 27.4 33Z" fill="#0066DA"/>
<path d="M7 25.8H14.2V33H9.4C8.76348 33 8.15303 32.7472 7.70294 32.2971C7.25286 31.847 7 31.2366 7 30.6V25.8Z" fill="#188038"/>
</svg>
